<svg width="896" height="1024" xmlns="http://www.w3.org/2000/svg"> <g>  <title>background</title>  <rect fill="none" height="402" width="582" y="-1" x="-1"/> </g> <g>  <title>Layer 1</title>  <path fill="currentColor" id="svg_1" d="m447.938,350c-89.407,0 -161.938,72.531 -161.938,162c0,89.375 72.531,162.062 161.938,162.062c89.438,0 161.438,-72.688 161.438,-162.062c-0.001,-89.469 -72.001,-162 -161.438,-162zm324.687,255.062l-29.188,70.312l52.062,102.25l6.875,13.5l-72.188,72.188l-118.436,-55.937l-70.312,28.875l-35.688,109.25l-4.562,14.5l-102.032,0l-44.156,-123.312l-70.312,-29l-102.404,51.938l-13.5,6.75l-72.156,-72.125l55.875,-118.5l-28.969,-70.25l-109.065,-35.626l-14.469,-4.687l0,-101.969l123.406,-44.219l28.969,-70.188l-51.906,-102.469l-6.844,-13.438l72.062,-72.062l118.594,55.844l70.219,-29.031l35.656,-109.188l4.594,-14.468l102,0l44.188,123.469l70.125,29.031l102.437,-51.969l13.625,-6.844l72.125,72.062l-55.875,118.406l28.875,70.345l109.375,35.656l14.375,4.594l0,101.938l-123.375,44.374z"/> </g></svg>